<mxfile host="Electron" modified="2024-03-29T08:27:39.333Z" agent="Mozilla/5.0 (Windows NT 10.0; Win64; x64) AppleWebKit/537.36 (KHTML, like Gecko) draw.io/24.1.0 Chrome/120.0.6099.109 Electron/28.1.0 Safari/537.36" etag="I8CMRpAScu6nVO6ZKPGg" version="24.1.0" type="device">
  <diagram name="Page-1" id="r1Hyp4Gwakwio_0DomK-">
    <mxGraphModel dx="956" dy="563" grid="1" gridSize="10" guides="1" tooltips="1" connect="1" arrows="1" fold="1" page="1" pageScale="1" pageWidth="1100" pageHeight="850" math="0" shadow="0">
      <root>
        <mxCell id="0" />
        <mxCell id="1" parent="0" />
        <mxCell id="21LEfW5QRLlqgm8aSt_V-1" value="&lt;font style=&quot;font-size: 18px;&quot;&gt;&lt;span&gt;ระบบ&lt;/span&gt;&lt;/font&gt;" style="rounded=0;whiteSpace=wrap;html=1;shadow=1;fontStyle=1" vertex="1" parent="1">
          <mxGeometry x="140" y="60" width="120" height="60" as="geometry" />
        </mxCell>
        <mxCell id="21LEfW5QRLlqgm8aSt_V-2" value="&lt;font style=&quot;font-size: 18px;&quot;&gt;&lt;b&gt;ทีม&lt;/b&gt;&lt;/font&gt;" style="rounded=0;whiteSpace=wrap;html=1;shadow=1;" vertex="1" parent="1">
          <mxGeometry x="530" y="60" width="120" height="60" as="geometry" />
        </mxCell>
        <mxCell id="21LEfW5QRLlqgm8aSt_V-3" value="&lt;font style=&quot;font-size: 18px;&quot;&gt;&lt;b&gt;องค์กร&lt;/b&gt;&lt;/font&gt;" style="rounded=0;whiteSpace=wrap;html=1;shadow=1;" vertex="1" parent="1">
          <mxGeometry x="880" y="60" width="120" height="60" as="geometry" />
        </mxCell>
        <mxCell id="21LEfW5QRLlqgm8aSt_V-4" value="&lt;font style=&quot;font-size: 18px;&quot;&gt;&lt;span&gt;ประเภท&lt;/span&gt;&lt;/font&gt;" style="rounded=0;whiteSpace=wrap;html=1;shadow=1;fontStyle=1" vertex="1" parent="1">
          <mxGeometry x="40" y="180" width="120" height="60" as="geometry" />
        </mxCell>
        <mxCell id="21LEfW5QRLlqgm8aSt_V-5" value="&lt;span style=&quot;font-size: 18px;&quot;&gt;อายุการใช้งาน&lt;/span&gt;" style="rounded=0;whiteSpace=wrap;html=1;shadow=1;fontStyle=1" vertex="1" parent="1">
          <mxGeometry x="240" y="180" width="140" height="60" as="geometry" />
        </mxCell>
        <mxCell id="21LEfW5QRLlqgm8aSt_V-6" value="&lt;font style=&quot;font-size: 18px;&quot;&gt;&lt;span&gt;ประเภท&lt;/span&gt;&lt;/font&gt;" style="rounded=0;whiteSpace=wrap;html=1;shadow=1;fontStyle=1" vertex="1" parent="1">
          <mxGeometry x="40" y="280" width="120" height="60" as="geometry" />
        </mxCell>
        <mxCell id="21LEfW5QRLlqgm8aSt_V-7" value="&lt;span style=&quot;font-size: 18px;&quot;&gt;ระเบียบข้อบังคับ&lt;/span&gt;" style="rounded=0;whiteSpace=wrap;html=1;shadow=1;fontStyle=1" vertex="1" parent="1">
          <mxGeometry x="240" y="280" width="140" height="60" as="geometry" />
        </mxCell>
        <mxCell id="21LEfW5QRLlqgm8aSt_V-9" value="&lt;span style=&quot;font-size: 18px;&quot;&gt;เทคโนโลยี&lt;/span&gt;" style="rounded=0;whiteSpace=wrap;html=1;shadow=1;fontStyle=1" vertex="1" parent="1">
          <mxGeometry x="450" y="180" width="120" height="60" as="geometry" />
        </mxCell>
        <mxCell id="21LEfW5QRLlqgm8aSt_V-10" value="&lt;span style=&quot;font-size: 18px;&quot;&gt;ความรู้ความสามารถ&lt;/span&gt;" style="rounded=0;whiteSpace=wrap;html=1;shadow=1;fontStyle=1" vertex="1" parent="1">
          <mxGeometry x="500" y="280" width="190" height="60" as="geometry" />
        </mxCell>
        <mxCell id="21LEfW5QRLlqgm8aSt_V-11" value="&lt;span style=&quot;font-size: 18px;&quot;&gt;การกระจาย&lt;/span&gt;" style="rounded=0;whiteSpace=wrap;html=1;shadow=1;fontStyle=1" vertex="1" parent="1">
          <mxGeometry x="620" y="180" width="120" height="60" as="geometry" />
        </mxCell>
        <mxCell id="21LEfW5QRLlqgm8aSt_V-12" value="&lt;span style=&quot;font-size: 18px;&quot;&gt;สัญญา&lt;/span&gt;" style="rounded=0;whiteSpace=wrap;html=1;shadow=1;fontStyle=1" vertex="1" parent="1">
          <mxGeometry x="790" y="180" width="120" height="60" as="geometry" />
        </mxCell>
        <mxCell id="21LEfW5QRLlqgm8aSt_V-13" value="&lt;span style=&quot;font-size: 18px;&quot;&gt;จัดส่ง&lt;/span&gt;" style="rounded=0;whiteSpace=wrap;html=1;shadow=1;fontStyle=1" vertex="1" parent="1">
          <mxGeometry x="970" y="180" width="120" height="60" as="geometry" />
        </mxCell>
        <mxCell id="21LEfW5QRLlqgm8aSt_V-14" value="&lt;span style=&quot;font-size: 18px;&quot;&gt;วัฒนธรรม&lt;/span&gt;" style="rounded=0;whiteSpace=wrap;html=1;shadow=1;fontStyle=1" vertex="1" parent="1">
          <mxGeometry x="880" y="280" width="120" height="60" as="geometry" />
        </mxCell>
        <mxCell id="21LEfW5QRLlqgm8aSt_V-16" value="" style="endArrow=none;html=1;rounded=0;" edge="1" parent="1">
          <mxGeometry width="50" height="50" relative="1" as="geometry">
            <mxPoint x="150" y="180" as="sourcePoint" />
            <mxPoint x="150" y="120" as="targetPoint" />
          </mxGeometry>
        </mxCell>
        <mxCell id="21LEfW5QRLlqgm8aSt_V-17" value="" style="endArrow=none;html=1;rounded=0;" edge="1" parent="1">
          <mxGeometry width="50" height="50" relative="1" as="geometry">
            <mxPoint x="250" y="180" as="sourcePoint" />
            <mxPoint x="250" y="120" as="targetPoint" />
          </mxGeometry>
        </mxCell>
        <mxCell id="21LEfW5QRLlqgm8aSt_V-18" value="" style="endArrow=none;html=1;rounded=0;" edge="1" parent="1">
          <mxGeometry width="50" height="50" relative="1" as="geometry">
            <mxPoint x="200" y="260" as="sourcePoint" />
            <mxPoint x="199.72" y="120" as="targetPoint" />
          </mxGeometry>
        </mxCell>
        <mxCell id="21LEfW5QRLlqgm8aSt_V-19" value="" style="endArrow=none;html=1;rounded=0;" edge="1" parent="1">
          <mxGeometry width="50" height="50" relative="1" as="geometry">
            <mxPoint x="90" y="260" as="sourcePoint" />
            <mxPoint x="320" y="260" as="targetPoint" />
          </mxGeometry>
        </mxCell>
        <mxCell id="21LEfW5QRLlqgm8aSt_V-20" value="" style="endArrow=none;html=1;rounded=0;exitX=0.417;exitY=0;exitDx=0;exitDy=0;exitPerimeter=0;" edge="1" parent="1" source="21LEfW5QRLlqgm8aSt_V-6">
          <mxGeometry width="50" height="50" relative="1" as="geometry">
            <mxPoint x="210" y="270" as="sourcePoint" />
            <mxPoint x="90" y="260" as="targetPoint" />
          </mxGeometry>
        </mxCell>
        <mxCell id="21LEfW5QRLlqgm8aSt_V-21" value="" style="endArrow=none;html=1;rounded=0;" edge="1" parent="1">
          <mxGeometry width="50" height="50" relative="1" as="geometry">
            <mxPoint x="319" y="280" as="sourcePoint" />
            <mxPoint x="319" y="260" as="targetPoint" />
          </mxGeometry>
        </mxCell>
        <mxCell id="21LEfW5QRLlqgm8aSt_V-22" value="" style="endArrow=none;html=1;rounded=0;exitX=0.5;exitY=0;exitDx=0;exitDy=0;" edge="1" parent="1" source="21LEfW5QRLlqgm8aSt_V-10">
          <mxGeometry width="50" height="50" relative="1" as="geometry">
            <mxPoint x="595" y="260" as="sourcePoint" />
            <mxPoint x="594.72" y="120" as="targetPoint" />
          </mxGeometry>
        </mxCell>
        <mxCell id="21LEfW5QRLlqgm8aSt_V-23" value="" style="endArrow=none;html=1;rounded=0;" edge="1" parent="1">
          <mxGeometry width="50" height="50" relative="1" as="geometry">
            <mxPoint x="549" y="180" as="sourcePoint" />
            <mxPoint x="549" y="120" as="targetPoint" />
          </mxGeometry>
        </mxCell>
        <mxCell id="21LEfW5QRLlqgm8aSt_V-24" value="" style="endArrow=none;html=1;rounded=0;" edge="1" parent="1">
          <mxGeometry width="50" height="50" relative="1" as="geometry">
            <mxPoint x="640" y="180" as="sourcePoint" />
            <mxPoint x="640" y="120" as="targetPoint" />
          </mxGeometry>
        </mxCell>
        <mxCell id="21LEfW5QRLlqgm8aSt_V-25" value="" style="endArrow=none;html=1;rounded=0;" edge="1" parent="1">
          <mxGeometry width="50" height="50" relative="1" as="geometry">
            <mxPoint x="900" y="180" as="sourcePoint" />
            <mxPoint x="900" y="120" as="targetPoint" />
          </mxGeometry>
        </mxCell>
        <mxCell id="21LEfW5QRLlqgm8aSt_V-26" value="" style="endArrow=none;html=1;rounded=0;" edge="1" parent="1">
          <mxGeometry width="50" height="50" relative="1" as="geometry">
            <mxPoint x="980" y="180" as="sourcePoint" />
            <mxPoint x="980" y="120" as="targetPoint" />
          </mxGeometry>
        </mxCell>
        <mxCell id="21LEfW5QRLlqgm8aSt_V-27" value="" style="endArrow=none;html=1;rounded=0;exitX=0.5;exitY=0;exitDx=0;exitDy=0;" edge="1" parent="1">
          <mxGeometry width="50" height="50" relative="1" as="geometry">
            <mxPoint x="939.95" y="280" as="sourcePoint" />
            <mxPoint x="939.6700000000001" y="120" as="targetPoint" />
          </mxGeometry>
        </mxCell>
      </root>
    </mxGraphModel>
  </diagram>
</mxfile>
